<?xml version="1.0" encoding="UTF-8" standalone="no"?>
<!-- Created with Inkscape (http://www.inkscape.org/) -->

<svg
   xmlns:dc="http://purl.org/dc/elements/1.1/"
   xmlns:cc="http://creativecommons.org/ns#"
   xmlns:rdf="http://www.w3.org/1999/02/22-rdf-syntax-ns#"
   xmlns:svg="http://www.w3.org/2000/svg"
   xmlns="http://www.w3.org/2000/svg"
   xmlns:sodipodi="http://sodipodi.sourceforge.net/DTD/sodipodi-0.dtd"
   xmlns:inkscape="http://www.inkscape.org/namespaces/inkscape"
   width="210mm"
   height="297mm"
   viewBox="0 0 210 297"
   version="1.1"
   id="svg8"
   inkscape:export-filename="C:\Users\Owner\codefellows\401\projects\ecom\GoodToyes\GoodToyes\wwwroot\Assets\Logos\logo.png"
   inkscape:export-xdpi="96"
   inkscape:export-ydpi="96"
   sodipodi:docname="PiPA-logo.svg"
   inkscape:version="0.92.4 (5da689c313, 2019-01-14)">
  <defs
     id="defs2" />
  <sodipodi:namedview
     id="base"
     pagecolor="#ffffff"
     bordercolor="#666666"
     borderopacity="1.0"
     inkscape:pageopacity="0.0"
     inkscape:pageshadow="2"
     inkscape:zoom="0.35355339"
     inkscape:cx="-1615.5401"
     inkscape:cy="593.27423"
     inkscape:document-units="px"
     inkscape:current-layer="layer1"
     showgrid="false"
     showborder="false"
     inkscape:object-paths="true"
     inkscape:snap-intersection-paths="true"
     inkscape:snap-smooth-nodes="true"
     inkscape:window-width="1920"
     inkscape:window-height="1051"
     inkscape:window-x="-9"
     inkscape:window-y="-9"
     inkscape:window-maximized="1"
     inkscape:object-nodes="true"
     inkscape:snap-nodes="true"
     inkscape:pagecheckerboard="true" />
  <metadata
     id="metadata5">
    <rdf:RDF>
      <cc:Work
         rdf:about="">
        <dc:format>image/svg+xml</dc:format>
        <dc:type
           rdf:resource="http://purl.org/dc/dcmitype/StillImage" />
        <dc:title></dc:title>
      </cc:Work>
    </rdf:RDF>
  </metadata>
  <g
     inkscape:label="Layer 1"
     inkscape:groupmode="layer"
     id="layer1">
    <path
       style="fill:#000000;stroke-width:0.20976384"
       d="m -436.14884,208.08935 v -56.3311 l 25.01434,0.0725 c 24.70016,0.0716 25.05072,0.0784 27.91089,0.54078 3.26531,0.52786 5.71328,1.07433 8.32581,1.8586 13.69483,4.11114 23.25425,13.88935 25.90696,26.49987 1.31119,6.23319 1.27315,13.66464 -0.10036,19.60757 -1.45599,6.29979 -4.36962,11.60544 -8.78513,15.99748 -3.27379,3.2564 -6.13865,5.26181 -10.52471,7.36732 -4.21022,2.0211 -7.83508,3.14989 -12.89456,4.01541 -5.62464,0.9622 -7.4114,1.03427 -25.74851,1.03865 l -17.35795,0.004 v 17.82993 17.82993 h -5.87339 -5.87339 z m 50.76285,9.68486 c 6.17719,-1.02842 11.31731,-2.94944 15.21607,-5.68671 1.77903,-1.24904 4.6096,-4.07678 5.72217,-5.71645 3.45537,-5.09244 4.85412,-11.03224 4.40932,-18.72427 -0.47431,-8.20219 -3.70018,-14.51191 -9.80943,-19.18699 -2.60821,-1.99592 -7.6464,-4.2292 -11.55262,-5.12094 -5.56286,-1.26993 -9.71378,-1.48634 -28.58032,-1.49007 l -14.42126,-0.003 v 28.22475 28.22475 l 18.40677,-0.0773 c 16.30576,-0.0684 18.65818,-0.11912 20.6093,-0.44396 z m 58.73387,4.27394 v -42.37229 h 5.66363 5.66362 v 42.37229 42.3723 h -5.66362 -5.66363 z m 45.72852,-13.95807 v -56.33036 l 25.01434,0.0732 c 24.30344,0.0711 25.09481,0.0859 27.84615,0.51981 7.73219,1.21956 13.32554,3.15862 18.77386,6.50837 7.09858,4.36437 12.28056,10.8921 14.69188,18.50739 1.33148,4.20492 1.82629,7.7395 1.82065,13.00536 -0.009,8.67413 -1.80062,15.10237 -5.92894,21.27613 -5.18548,7.75475 -14.22173,13.41164 -24.95241,15.62074 -6.80702,1.40135 -8.47289,1.48991 -28.02588,1.48991 h -17.28311 v 17.82993 17.82993 h -5.97827 -5.97827 z m 51.28726,9.60676 c 8.31082,-1.53898 13.40831,-3.903 17.73662,-8.22559 2.17911,-2.17622 3.27509,-3.66025 4.49908,-6.09208 3.78951,-7.52895 3.73518,-19.02399 -0.12609,-26.68211 -1.03097,-2.04475 -2.21492,-3.68826 -3.94924,-5.48214 -5.55638,-5.74723 -13.27394,-8.60211 -24.76793,-9.16215 -2.24972,-0.10962 -10.53277,-0.201 -18.40678,-0.20307 l -14.31638,-0.004 v 28.22562 28.22562 l 18.51166,-0.0865 c 17.51945,-0.0819 18.63533,-0.10943 20.81906,-0.51381 z m 59.25828,12.55922 c 0,-36.5083 0.002,-36.59738 1.05046,-42.71406 2.83556,-16.54545 11.72684,-27.83356 26.44413,-33.57264 11.09562,-4.3268 27.96466,-4.32146 39.18644,0.0124 15.086714,5.8265 24.123298,17.76135 26.653259,35.2017 0.815541,5.62186 0.84967,7.29649 0.84967,41.68621 v 33.55079 h -5.873388 -5.873387 V 247.8491 231.27776 h -35.450084 -35.45009 v 16.57134 16.57135 h -5.7685 -5.76851 z m 82.437184,-21.17134 c 0,-12.38956 -0.1478,-15.86328 -0.85269,-20.04159 -2.656365,-15.74575 -12.579424,-25.32343 -28.304474,-27.31927 -3.1064,-0.39427 -9.47944,-0.39427 -12.58583,0 -8.16699,1.03656 -14.38399,3.89687 -19.53606,8.98811 -4.40244,4.35046 -7.50357,10.83366 -8.76843,18.33116 -0.70489,4.17831 -0.85269,7.65203 -0.85269,20.04159 v 11.91461 h 35.45009 35.450084 z M -322.30685,161.00455 c -1.49953,-0.26109 -3.49362,-1.28333 -4.5352,-2.32491 -0.50825,-0.50826 -1.21621,-1.53766 -1.57323,-2.28757 -0.59148,-1.24239 -0.64912,-1.54973 -0.64912,-3.4611 0,-1.91783 0.0539,-2.20296 0.62929,-3.3263 0.34611,-0.67577 1.09654,-1.70436 1.66761,-2.28577 3.9214,-3.99236 11.12442,-2.75924 13.5008,2.31127 0.49419,1.05447 0.56388,1.46239 0.56388,3.3008 0,1.85776 -0.0672,2.24156 -0.58724,3.35622 -1.5671,3.35866 -5.37583,5.3513 -9.01679,4.71736 z"
       id="path4563"
       inkscape:connector-curvature="0"
       inkscape:export-filename="C:\Users\Owner\codefellows\401\projects\final\PiPA\wwwroot\logo.png"
       inkscape:export-xdpi="96"
       inkscape:export-ydpi="96" />
    <path
       style="fill:currentColor;stroke-width:0.54355955"
       d="m -217.77846,56.489848 c -2.72577,-0.07918 -5.04775,1.571686 -7.58042,2.356445 -6.14223,-1.956813 -7.55552,0.70698 -10.5451,1.848466 -6.68579,-1.413261 -8.75142,1.630432 -11.95843,4.83743 l -3.75068,-0.05426 c -10.11021,5.870443 -15.11065,17.828906 -16.90439,23.971144 -1.79377,-6.142238 -6.79471,-18.100701 -16.90491,-23.971144 l -3.75069,0.05426 c -3.20698,-3.206998 -5.27214,-6.250691 -11.95792,-4.83743 -3.04395,-1.087125 -4.40288,-3.805279 -10.5451,-1.848466 -2.50036,-0.760968 -4.8378,-2.391167 -7.5556,-2.336808 -1.41324,0.05444 -2.98953,0.543309 -4.72892,1.902209 -4.29411,-1.630678 -8.42553,-2.174185 -12.12173,1.141534 -5.70738,-0.706631 -7.60958,0.761145 -8.96845,2.554883 -1.25021,0 -9.40369,-1.250416 -13.15424,4.239532 -9.40358,-1.087104 -12.339,5.435468 -8.96895,11.523329 -1.90246,2.935221 -3.91316,5.816243 0.59841,11.360547 -1.57633,3.0983 -0.5983,6.468382 3.15227,10.545093 -0.9784,4.348478 0.97841,7.446488 4.40283,9.838158 -0.65228,5.97914 5.54418,9.45821 7.3923,10.70839 0.70665,3.47877 2.17442,6.73999 9.29505,8.58811 1.19584,5.16381 5.43581,6.08815 9.56686,7.17527 -7.19736,4.12916 -13.84954,8.9402 -18.52137,16.26619 h 12.60235 c 8.14083,-9.61163 21.57917,-13.91912 36.52128,-11.42876 2.87832,0.47972 -0.41304,5.3298 -6.29264,11.42876 h 11.4608 c -0.003,-0.0953 -0.005,-0.19053 -0.004,-0.28577 0,-6.46838 14.24078,-17.66574 29.02561,-17.28525 12.53977,-0.1555 27.8951,8.77799 29.25506,17.57102 h 10.6562 c -5.41184,-5.73737 -8.31358,-10.20827 -5.55778,-10.66757 14.56481,-2.39028 27.66927,1.6129 35.8567,10.66757 h 12.07058 c -4.6718,-7.32596 -11.32348,-12.13704 -18.52083,-16.26619 4.13104,-1.08712 8.37052,-1.9571 9.56635,-7.17527 7.12063,-1.79376 8.5884,-5.10934 9.29503,-8.58811 1.84808,-1.25018 8.0446,-4.72925 7.39232,-10.70839 3.47877,-2.39167 5.4356,-5.48968 4.40283,-9.838158 3.75057,-4.076711 4.72911,-7.446793 3.15277,-10.545093 4.51157,-5.598665 2.50037,-8.479684 0.59791,-11.360547 3.37005,-6.087861 0.38036,-12.610433 -9.02322,-11.523329 -3.75057,-5.489948 -11.90405,-4.239532 -13.15424,-4.239532 -1.41327,-1.739379 -3.26106,-3.261514 -8.96844,-2.554883 -3.69621,-3.315719 -7.82712,-2.717853 -12.12123,-1.141534 -1.7377,-1.363996 -3.27631,-1.88037 -4.7041,-1.921846 z m -100.80109,7.140133 c 5.10947,1.848096 7.77292,4.293711 10.5451,6.68538 0.92405,-1.250185 2.39154,-2.17383 0.65214,-5.217768 3.64186,2.06553 6.41416,4.511209 8.42534,7.229014 2.22859,-1.413261 1.35909,-3.369871 1.35909,-5.109249 3.80492,3.04392 6.19651,6.250903 9.13175,9.403561 0.5979,-0.434853 1.08693,-1.848064 1.57612,-4.131014 9.02308,8.642589 21.79669,30.384985 3.26131,39.027595 -15.76324,-12.773649 -34.57044,-22.122828 -55.44312,-29.080399 26.79747,13.588981 42.39786,24.623279 50.93176,34.026859 -4.34848,17.28519 -27.17792,18.04626 -35.54873,17.55707 1.68502,-0.76099 3.15243,-1.73954 3.64164,-3.15278 -2.17426,-1.52198 -9.56646,-0.21776 -14.78462,-3.04425 2.01118,-0.38049 2.93513,-0.81505 3.85919,-2.22829 -4.89204,-1.52198 -10.16448,-2.8811 -13.26277,-5.43585 1.68505,0 3.26109,0.38043 5.43533,-1.14153 -4.40282,-2.33731 -9.07727,-4.18526 -12.71913,-7.71839 2.28296,-0.0544 4.72872,0 5.43534,-0.86972 -4.02236,-2.44601 -7.39198,-5.16391 -10.2185,-8.1535 3.15264,0.3805 4.51104,0.0548 5.27203,-0.48886 -3.04395,-3.043938 -6.9029,-5.653013 -8.69661,-9.403561 2.33727,0.81533 4.51167,1.086731 6.08798,-0.05478 -1.03277,-2.28295 -5.43597,-3.641455 -7.99073,-9.022705 2.50039,0.217438 5.10984,0.543574 5.6534,0 -1.14146,-4.620259 -3.15304,-7.229511 -5.0555,-9.892934 5.32688,-0.05444 13.37196,2.54e-4 12.99147,-0.4346 l -3.26131,-3.316075 c 5.16382,-1.358906 10.49025,0.217506 14.34952,1.413348 1.73937,-1.358902 -0.0543,-3.043772 -2.11976,-4.783169 4.40282,0.597932 8.37086,1.576337 12.01269,2.935221 1.90248,-1.68502 -1.24997,-3.424729 -2.77194,-5.109765 6.7945,1.250183 9.67497,3.044208 12.55583,4.837946 2.06555,-1.956814 0.1089,-3.641789 -1.30431,-5.326806 z m 100.99333,0 c -1.41327,1.685038 -3.36986,3.369992 -1.30432,5.326806 2.88087,-1.793738 5.76133,-3.587763 12.55583,-4.837946 -1.52196,1.685036 -4.72876,3.424727 -2.77193,5.109765 3.58748,-1.358902 7.60987,-2.391669 12.01269,-2.935221 -2.11987,1.739376 -3.85913,3.424267 -2.11976,4.783169 3.85926,-1.195824 9.18623,-2.772254 14.35002,-1.413348 l -3.26128,3.316075 c -0.3805,0.434854 7.66405,0.32588 12.99093,0.4346 -1.95683,2.717784 -3.91353,5.272696 -5.05499,9.892934 0.54356,0.543574 3.15251,0.217438 5.65287,0 -2.55473,5.381252 -6.95743,6.685913 -7.9902,9.023223 1.57633,1.19583 3.69583,0.869551 6.08748,0.05426 -1.84809,3.750559 -5.65266,6.359623 -8.69662,9.403562 0.761,0.54356 2.1199,0.86986 5.27254,0.48937 -2.82649,2.98958 -6.19665,5.70698 -10.219,8.15299 0.70662,0.81535 3.15238,0.81536 5.43533,0.86972 -3.64185,3.53313 -8.3163,5.3816 -12.71913,7.71891 2.17424,1.46762 3.75082,1.14101 5.43584,1.14101 -3.09829,2.55473 -8.37123,3.85953 -13.26327,5.43585 0.92403,1.46762 1.84854,1.84831 3.85972,2.2288 -5.16382,2.88087 -12.6106,1.57612 -14.67612,3.04374 0.48921,1.46761 1.95662,2.39181 3.64164,3.15278 -8.37083,0.48922 -31.1459,-0.32622 -35.54873,-17.55707 8.53387,-9.40358 24.13379,-20.383515 50.93126,-34.02686 -20.87268,6.957565 -39.67988,16.306739 -55.44312,29.0804 -18.64407,-8.64261 -5.87033,-30.38501 3.15278,-39.027596 0.43482,2.28295 0.97872,3.696158 1.57665,4.131014 2.93521,-3.15264 5.32683,-6.359641 9.13172,-9.403561 0,1.793737 -0.92437,3.695988 1.35859,5.109249 2.01117,-2.717805 4.78348,-5.163484 8.42534,-7.229014 -1.7394,3.043938 -0.32626,3.968101 0.65214,5.218284 2.77215,-2.391648 5.4356,-4.783442 10.5451,-6.685896 z M -363.27088,262.07471 c 0.4989,1.35267 0.99729,2.70368 1.47847,4.08554 3.20701,24.56887 24.18834,36.03776 29.67828,37.39669 8.09903,6.08785 16.7418,11.84957 28.374,15.8719 11.03423,11.19733 22.9925,15.4373 34.95082,15.4373 h 0.54364 c 12.01266,0 23.91616,-4.23997 34.89605,-15.4373 11.68654,-4.02233 20.27497,-9.78405 28.374,-15.8719 5.54429,-1.35893 26.4713,-12.82782 29.67828,-37.39669 0.48118,-1.38186 0.97957,-2.73287 1.47847,-4.08554 h -10.81434 c -0.18076,6.75601 -1.99697,13.89653 -6.37273,19.41381 -13.75206,18.80716 -32.39622,19.51395 -39.29941,14.29575 -6.19712,-5.77776 -3.04363,-21.97602 4.24781,-33.70956 h -9.87383 c -1.95588,14.35265 -15.40843,25.45602 -31.7164,25.55606 -16.4266,0.10075 -30.0488,-11.10298 -32.0368,-25.55606 h -13.40176 c 8.09914,11.07904 11.40751,28.43449 4.18216,33.76383 -7.22934,4.29413 -24.8948,2.55458 -37.39668,-15.16547 -3.65101,-6.45403 -5.51341,-12.94733 -5.97225,-18.59836 z m 98.84616,34.53692 c 12.51993,0.0824 27.76286,4.50635 27.81382,10.31565 0.27176,5.97913 -15.65455,19.5135 -31.09166,19.24172 -15.98065,0.65227 -31.63515,-12.88249 -31.41771,-17.55706 -0.21744,-6.90322 19.45952,-12.28408 32.23318,-11.95795 0.80515,-0.034 1.62772,-0.0479 2.46237,-0.0424 z"
       id="path2"
       inkscape:connector-curvature="0"
       inkscape:export-filename="C:\Users\Owner\codefellows\401\projects\final\PiPA\wwwroot\logo.png"
       inkscape:export-xdpi="96"
       inkscape:export-ydpi="96" />
    <rect
       style="opacity:0.18399999;fill:#000000;fill-opacity:0;stroke-width:0.26458332"
       id="rect4586"
       width="376.76666"
       height="143.93333"
       x="-853.01666"
       y="152.00835"
       ry="6.9449682" />
    <rect
       style="opacity:0.18399999;fill:#000000;fill-opacity:0;stroke-width:0.26458332"
       id="rect4588"
       width="332.31665"
       height="116.41665"
       x="-808.56665"
       y="152.00835"
       ry="6.9449682" />
    <rect
       style="opacity:0.18399999;fill:#00ff00;fill-opacity:0;stroke-width:0.26458332"
       id="rect4593"
       width="332.31665"
       height="109.72179"
       x="-808.56665"
       y="151.75824"
       ry="6.9449682" />
    <rect
       style="opacity:0.18399999;fill:#00ff00;fill-opacity:0;stroke-width:0.26458332"
       id="rect4595"
       width="376.76666"
       height="109.72179"
       x="-853.01666"
       y="151.75824"
       ry="6.9449682" />
  </g>
</svg>
